solid PrintHive_Demo_3D_Model
  facet normal 0 0 1
    outer loop
      vertex -25 -25 25
      vertex 25 -25 25
      vertex 25 25 25
    endloop
  endfacet
  facet normal 0 0 1
    outer loop
      vertex -25 -25 25
      vertex 25 25 25
      vertex -25 25 25
    endloop
  endfacet
  facet normal 0 0 -1
    outer loop
      vertex -25 -25 -25
      vertex -25 25 -25
      vertex 25 25 -25
    endloop
  endfacet
  facet normal 0 0 -1
    outer loop
      vertex -25 -25 -25
      vertex 25 25 -25
      vertex 25 -25 -25
    endloop
  endfacet
  facet normal 0 1 0
    outer loop
      vertex -25 25 -25
      vertex -25 25 25
      vertex 25 25 25
    endloop
  endfacet
  facet normal 0 1 0
    outer loop
      vertex -25 25 -25
      vertex 25 25 25
      vertex 25 25 -25
    endloop
  endfacet
  facet normal 0 -1 0
    outer loop
      vertex -25 -25 -25
      vertex 25 -25 -25
      vertex 25 -25 25
    endloop
  endfacet
  facet normal 0 -1 0
    outer loop
      vertex -25 -25 -25
      vertex 25 -25 25
      vertex -25 -25 25
    endloop
  endfacet
  facet normal 1 0 0
    outer loop
      vertex 25 -25 -25
      vertex 25 25 -25
      vertex 25 25 25
    endloop
  endfacet
  facet normal 1 0 0
    outer loop
      vertex 25 -25 -25
      vertex 25 25 25
      vertex 25 -25 25
    endloop
  endfacet
  facet normal -1 0 0
    outer loop
      vertex -25 -25 -25
      vertex -25 -25 25
      vertex -25 25 25
    endloop
  endfacet
  facet normal -1 0 0
    outer loop
      vertex -25 -25 -25
      vertex -25 25 25
      vertex -25 25 -25
    endloop
  endfacet
endsolid PrintHive_Demo_3D_Model